<svg fill="#000000" xmlns="http://www.w3.org/2000/svg"  viewBox="0 0 16 16" width="128px" height="128px"><path d="M 5.4179688 1.9199219 C 5.1428281 1.9367871 4.8730801 2.0110677 4.625 2.1542969 C 4.1288397 2.4407552 3.8280443 2.9434418 3.7070312 3.4921875 C 3.586018 4.0409331 3.615847 4.6519208 3.7363281 5.3066406 C 3.7526006 5.3950689 3.7830534 5.4900657 3.8027344 5.5800781 C 3.6077337 5.6404857 3.4034082 5.6968562 3.2246094 5.765625 C 2.5967094 6.0071252 2.0698262 6.2961554 1.6738281 6.65625 C 1.2778301 7.0163446 1 7.4791793 1 8 C 1 8.5208207 1.2778301 8.9836554 1.6738281 9.34375 C 2.0698262 9.7038446 2.5967094 9.9928748 3.2246094 10.234375 C 3.4190532 10.309161 3.639983 10.370674 3.8535156 10.435547 C 3.8246734 10.580679 3.783799 10.73335 3.7636719 10.873047 C 3.6705619 11.5193 3.6710007 12.103332 3.7929688 12.615234 C 3.9149367 13.127137 4.1798065 13.588671 4.625 13.845703 C 5.0701935 14.102736 5.6011641 14.101496 6.1054688 13.951172 C 6.6097738 13.800848 7.1177431 13.509231 7.6308594 13.105469 C 7.7411175 13.018709 7.8522854 12.907452 7.9628906 12.810547 C 8.0427377 12.884098 8.1208564 12.970644 8.2011719 13.039062 C 8.7079351 13.470762 9.2220782 13.801131 9.7578125 13.970703 C 10.293546 14.140276 10.87884 14.132162 11.375 13.845703 C 11.87116 13.559245 12.171956 13.056558 12.292969 12.507812 C 12.413982 11.959067 12.384152 11.348078 12.263672 10.693359 C 12.247399 10.604931 12.216947 10.509934 12.197266 10.419922 C 12.392266 10.359514 12.596592 10.303144 12.775391 10.234375 C 13.403291 9.9928748 13.930174 9.7038446 14.326172 9.34375 C 14.72217 8.9836554 15 8.5208207 15 8 C 15 7.4791793 14.72217 7.0163446 14.326172 6.65625 C 13.930174 6.2961554 13.403291 6.0071252 12.775391 5.765625 C 12.580947 5.6908389 12.360017 5.6293262 12.146484 5.5644531 C 12.175327 5.4193206 12.216201 5.2666501 12.236328 5.1269531 C 12.329437 4.4807006 12.328999 3.8966676 12.207031 3.3847656 C 12.085063 2.8728627 11.820194 2.4113295 11.375 2.1542969 C 10.929806 1.8972643 10.398836 1.8985039 9.8945312 2.0488281 C 9.3902268 2.1991514 8.8822567 2.4907694 8.3691406 2.8945312 C 8.2588824 2.9812915 8.1477146 3.0925481 8.0371094 3.1894531 C 7.9572623 3.1159023 7.8791436 3.0293563 7.7988281 2.9609375 C 7.2920649 2.5292379 6.7779218 2.1988691 6.2421875 2.0292969 C 5.9743204 1.9445107 5.6931094 1.9030566 5.4179688 1.9199219 z M 5.4863281 2.9121094 C 5.6184787 2.9052569 5.765789 2.9274532 5.9394531 2.9824219 C 6.2867814 3.0923592 6.7123258 3.3478155 7.1523438 3.7226562 C 7.2080882 3.7701436 7.2660916 3.8336482 7.3222656 3.8847656 C 6.9849764 4.2457877 6.6542592 4.6470665 6.3320312 5.0878906 C 5.7804989 5.1422545 5.2611639 5.2252604 4.7695312 5.3300781 C 4.7554028 5.2642027 4.7305516 5.1910856 4.71875 5.1269531 C 4.6141374 4.5584661 4.6070913 4.062795 4.6855469 3.7070312 C 4.7640024 3.3512674 4.8994728 3.1497395 5.125 3.0195312 C 5.2377636 2.9544271 5.3541775 2.9189618 5.4863281 2.9121094 z M 10.59375 2.9433594 C 10.707096 2.9484996 10.798664 2.9754582 10.875 3.0195312 C 11.027672 3.1076762 11.156513 3.2802518 11.236328 3.6152344 C 11.316138 3.9502178 11.326744 4.4249246 11.246094 4.984375 C 11.230995 5.089199 11.197083 5.2099673 11.175781 5.3203125 C 10.70398 5.2219048 10.207844 5.1421816 9.6816406 5.0898438 C 9.3790873 4.6658633 9.0653319 4.266774 8.7402344 3.9023438 C 8.82247 3.8312396 8.9076298 3.7451038 8.9882812 3.6816406 C 9.4324776 3.3321106 9.8496759 3.1042298 10.179688 3.0058594 C 10.344693 2.9566744 10.480404 2.9382191 10.59375 2.9433594 z M 8.0234375 4.6035156 C 8.1406094 4.736358 8.2570471 4.8697762 8.3730469 5.0136719 C 8.2471698 5.011 8.1276206 5 8 5 C 7.8810536 5 7.7697802 5.0113493 7.6523438 5.0136719 C 7.776207 4.8657329 7.8994254 4.7376076 8.0234375 4.6035156 z M 8 6 C 8.3895493 6 8.7673112 6.0186935 9.1367188 6.0449219 C 9.3440619 6.3534994 9.5438442 6.6733738 9.7324219 7 C 9.9207169 7.3261363 10.098358 7.6588368 10.261719 7.9921875 C 10.101925 8.3259539 9.9274829 8.6621442 9.7324219 9 C 9.538936 9.3351273 9.3362843 9.651993 9.1289062 9.9550781 C 8.7618727 9.9809578 8.3868763 10 8 10 C 7.6104507 10 7.2326888 9.9813065 6.8632812 9.9550781 C 6.6559381 9.6465006 6.4561558 9.3266263 6.2675781 9 C 6.0792832 8.6738637 5.9016422 8.3411632 5.7382812 8.0078125 C 5.8980761 7.6740461 6.072517 7.3378558 6.2675781 7 C 6.461064 6.6648727 6.6637157 6.348007 6.8710938 6.0449219 C 7.2381273 6.0190422 7.6131237 6 8 6 z M 5.6015625 6.1855469 C 5.5363195 6.2928259 5.4660042 6.3897369 5.4023438 6.5 C 5.3385814 6.6104395 5.2888915 6.7197606 5.2285156 6.8300781 C 5.1585596 6.6490298 5.0977921 6.4728993 5.0390625 6.296875 C 5.2255387 6.2582688 5.4032789 6.217086 5.6015625 6.1855469 z M 10.402344 6.1855469 C 10.587586 6.2150646 10.752771 6.2553116 10.927734 6.2910156 C 10.8745 6.4621003 10.826543 6.6290395 10.761719 6.8066406 C 10.70552 6.7049102 10.655841 6.6007784 10.597656 6.5 C 10.535691 6.3926727 10.466366 6.2914551 10.402344 6.1855469 z M 11.900391 6.5371094 C 12.074389 6.5907581 12.260427 6.6393771 12.416016 6.6992188 C 12.964383 6.9101295 13.390507 7.1583872 13.652344 7.3964844 C 13.914181 7.6345815 14 7.8304648 14 8 C 14 8.1695352 13.914181 8.3654185 13.652344 8.6035156 C 13.390507 8.8416128 12.964383 9.0898705 12.416016 9.3007812 C 12.270924 9.3565857 12.096701 9.4026838 11.935547 9.453125 C 11.778725 8.9713787 11.580507 8.4814102 11.355469 7.9882812 C 11.574886 7.4916229 11.756743 7.0072627 11.900391 6.5371094 z M 4.0644531 6.546875 C 4.2212746 7.0286213 4.4194927 7.5185898 4.6445312 8.0117188 C 4.4251138 8.5083771 4.2432565 8.9927373 4.0996094 9.4628906 C 3.925611 9.4092419 3.7395724 9.3606229 3.5839844 9.3007812 C 3.0356167 9.0898705 2.6094932 8.8416128 2.3476562 8.6035156 C 2.0858195 8.3654185 2 8.1695352 2 8 C 2 7.8304648 2.0858195 7.6345815 2.3476562 7.3964844 C 2.6094932 7.1583872 3.0356167 6.9101296 3.5839844 6.6992188 C 3.7290758 6.6434143 3.9032992 6.5973162 4.0644531 6.546875 z M 8 7 A 1 1 0 0 0 8 9 A 1 1 0 0 0 8 7 z M 10.771484 9.1699219 C 10.84144 9.3509702 10.902208 9.5271007 10.960938 9.703125 C 10.774461 9.7417312 10.596721 9.782914 10.398438 9.8144531 C 10.46368 9.7071741 10.533996 9.6102631 10.597656 9.5 C 10.661419 9.3895605 10.711108 9.2802394 10.771484 9.1699219 z M 5.2382812 9.1933594 C 5.2944803 9.2950898 5.3441593 9.3992216 5.4023438 9.5 C 5.4643092 9.6073273 5.5336339 9.7085449 5.5976562 9.8144531 C 5.4124139 9.7849354 5.2472286 9.7446884 5.0722656 9.7089844 C 5.1255025 9.5378997 5.1734558 9.3709605 5.2382812 9.1933594 z M 11.230469 10.669922 C 11.244597 10.735797 11.269448 10.808914 11.28125 10.873047 C 11.385863 11.441534 11.392909 11.937205 11.314453 12.292969 C 11.236003 12.648733 11.100527 12.850261 10.875 12.980469 C 10.649473 13.110677 10.407875 13.127521 10.060547 13.017578 C 9.7132183 12.907646 9.2876743 12.652185 8.8476562 12.277344 C 8.7919118 12.229856 8.7339084 12.166352 8.6777344 12.115234 C 9.0150235 11.754212 9.3457408 11.352933 9.6679688 10.912109 C 10.219501 10.857745 10.738836 10.77474 11.230469 10.669922 z M 4.8242188 10.679688 C 5.2960195 10.778095 5.7921558 10.857818 6.3183594 10.910156 C 6.6209128 11.334137 6.9346681 11.733226 7.2597656 12.097656 C 7.17753 12.16876 7.0923702 12.254896 7.0117188 12.318359 C 6.5675222 12.667889 6.1503238 12.89577 5.8203125 12.994141 C 5.4903012 13.092511 5.2776722 13.068614 5.125 12.980469 C 4.9723278 12.892324 4.8434863 12.719749 4.7636719 12.384766 C 4.6838574 12.049782 4.6733024 11.575076 4.7539062 11.015625 C 4.769009 10.910801 4.8029135 10.790033 4.8242188 10.679688 z M 7.6269531 10.986328 C 7.7528302 10.989 7.8723794 11 8 11 C 8.1189464 11 8.2302198 10.988651 8.3476562 10.986328 C 8.223793 11.134267 8.1005746 11.262392 7.9765625 11.396484 C 7.8593906 11.263642 7.7429529 11.130224 7.6269531 10.986328 z"/></svg>