<svg width="216" height="241" viewBox="0 0 216 241" fill="none" xmlns="http://www.w3.org/2000/svg">
<rect x="10" y="147" width="196" height="84" rx="35" fill="black" stroke="#CAA247" stroke-width="20"/>
<path d="M168 70C168 103.137 141.137 130 108 130C74.8629 130 48 103.137 48 70C48 36.8629 74.8629 10 108 10C141.137 10 168 36.8629 168 70Z" fill="black" stroke="#CAA247" stroke-width="20"/>
<path d="M108.5 88.125C122.203 88.125 134.788 86.6273 144.101 84.1072C148.721 82.8569 152.821 81.28 155.883 79.3206C158.713 77.51 162 74.4787 162 70C162 65.5213 158.713 62.49 155.883 60.6794C152.821 58.72 148.721 57.1431 144.101 55.8928C134.788 53.3727 122.203 51.875 108.5 51.875C94.7966 51.875 82.2117 53.3727 72.8992 55.8928C68.2791 57.1431 64.1792 58.72 61.1167 60.6794C58.2869 62.49 55 65.5213 55 70C55 74.4787 58.2869 77.51 61.1167 79.3206C64.1792 81.28 68.2791 82.8569 72.8992 84.1072C82.2117 86.6273 94.7966 88.125 108.5 88.125Z" fill="black" stroke="#CAA247" stroke-width="10"/>
<path d="M103.257 57.119C103.257 54.568 105.325 52.5 107.876 52.5V52.5C110.427 52.5 112.495 54.568 112.495 57.119V82.881C112.495 85.432 110.427 87.5 107.876 87.5V87.5C105.325 87.5 103.257 85.432 103.257 82.881V57.119Z" fill="#CAA247"/>
</svg>
