<svg width="300" height="300" viewBox="0 0 300 300" fill="none" xmlns="http://www.w3.org/2000/svg">
<circle cx="150" cy="150" r="140.5" fill="black" stroke="#CAA247" stroke-width="19"/>
<rect x="52" y="163" width="196" height="84" rx="35" fill="black" stroke="#CAA247" stroke-width="20"/>
<path d="M210 86C210 119.137 183.137 146 150 146C116.863 146 90 119.137 90 86C90 52.8629 116.863 26 150 26C183.137 26 210 52.8629 210 86Z" fill="black" stroke="#CAA247" stroke-width="20"/>
<path d="M150.5 104.125C164.203 104.125 176.788 102.627 186.101 100.107C190.721 98.8569 194.821 97.28 197.883 95.3206C200.713 93.51 204 90.4787 204 86C204 81.5213 200.713 78.49 197.883 76.6794C194.821 74.72 190.721 73.1431 186.101 71.8928C176.788 69.3727 164.203 67.875 150.5 67.875C136.797 67.875 124.212 69.3727 114.899 71.8928C110.279 73.1431 106.179 74.72 103.117 76.6794C100.287 78.49 97 81.5213 97 86C97 90.4787 100.287 93.51 103.117 95.3206C106.179 97.28 110.279 98.8569 114.899 100.107C124.212 102.627 136.797 104.125 150.5 104.125Z" fill="black" stroke="#CAA247" stroke-width="10"/>
<path d="M145.257 73.119C145.257 70.568 147.325 68.5 149.876 68.5V68.5C152.427 68.5 154.495 70.568 154.495 73.119V98.881C154.495 101.432 152.427 103.5 149.876 103.5V103.5C147.325 103.5 145.257 101.432 145.257 98.881V73.119Z" fill="#CAA247"/>
</svg>
